<?xml version="1.0" encoding="utf-8"?>
<svg viewBox="0 0 500 500" width="500" height="500" xmlns="http://www.w3.org/2000/svg">
  <g id="layer1" transform="matrix(2.696959, 0, 0, 2.918554, -397.294445, -1243.661902)" style="">
    <g style="fill:rgb(255,204,114); fill-opacity:1.0; stroke-linejoin: miter">
      <path d="M192.00633,479.89703C191.99109,479.89703,191.97572,479.89996,191.96107,479.90604C191.91684,479.92435,191.888,479.96753,191.888,480.0154L191.88797,511.99997L191.888,543.98553C191.888,544.0509,191.941,544.10394,192.00638,544.10394C192.03958,544.10394,192.0696,544.0903,192.0911,544.06824L192.09009,544.06824L224.07466,512.0837C224.1209,512.0375,224.1209,511.96252,224.07466,511.9163L192.09009,479.9317C192.06743,479.90906,192.03716,479.89703,192.00633,479.89703 Z"/>
    </g>
    <g style="fill:rgb(33,150,243); fill-opacity:1.0; stroke-linejoin: miter">
      <path d="M224.0,511.84598C223.95676,511.84598,223.91528,511.86316,223.8847,511.89374L191.90111,543.8783C191.85448,543.9249,191.84053,543.99506,191.86577,544.05597C191.87413,544.0762,191.88626,544.09406,191.90114,544.1089L191.89915,544.1089C191.91422,544.1242,191.9324,544.13666,191.95303,544.1452C191.9732,544.15356,191.9944,544.1576,192.0154,544.1576C192.02141,544.1576,192.02739,544.1573,192.03334,544.1566L192.03526,544.1566L223.99637,544.15857C224.03961,544.15857,224.08109,544.1414,224.11166,544.11084C224.11198,544.11053,224.1123,544.11017,224.11263,544.10986L224.11168,544.10986L240.10623,528.1153C240.1699,528.05164,240.1699,527.94836,240.10623,527.8847L224.1153,511.89374C224.08472,511.86316,224.04324,511.84598,224.0,511.84598 Z"/>
    </g>
    <g style="fill:rgb(255,204,114); fill-opacity:1.0; stroke-linejoin: miter">
      <path d="M191.99364,479.89703C191.96281,479.89703,191.93254,479.90906,191.90988,479.9317L159.92532,511.9163C159.87909,511.96252,159.87909,512.0375,159.92532,512.0837L191.90988,544.06824C191.93254,544.0909,191.96283,544.10297,191.99364,544.10297C192.00888,544.10297,192.02426,544.1,192.0389,544.09393C192.08313,544.0756,192.11197,544.0324,192.11197,543.98456L192.11194,511.99997L192.11197,480.0154C192.11197,479.96753,192.08313,479.92435,192.0389,479.90604C192.02425,479.89996,192.00888,479.89703,191.99364,479.89703 Z"/>
    </g>
    <g style="fill:rgb(33,150,243); fill-opacity:1.0; stroke-linejoin: miter">
      <path d="M192.00261,543.88556L191.91718,543.92096L159.93097,575.90814C159.89641,575.9427,159.88606,575.9947,159.90477,576.03986C159.90775,576.04706,159.91135,576.05383,159.91551,576.0601L159.91393,576.0601C159.92696,576.0803,159.94601,576.0966,159.9692,576.1062C159.98415,576.11237,159.99983,576.1154,160.0154,576.1154C160.02046,576.1154,160.02551,576.11505,160.03052,576.11444L160.03212,576.11444L191.99638,576.1164C192.02843,576.1164,192.05916,576.10364,192.08182,576.081C192.08214,576.0807,192.08246,576.0803,192.08278,576.08L192.08182,576.08L224.069,544.0938L224.1044,544.00836L224.1044,544.0074C224.1044,543.9407,224.0503,543.88654,223.98357,543.88654L192.00261,543.88556 Z"/>
    </g>
    <g style="fill:rgb(33,150,243); fill-opacity:1.0; stroke-linejoin: miter">
      <path d="M160.0154,447.87375C159.96175,447.87375,159.91338,447.90607,159.89284,447.95563C159.8723,448.0052,159.88365,448.0623,159.92159,448.10022L191.9088,480.0884C191.93417,480.11377,191.96811,480.12726,192.00262,480.12726C192.00807,480.12726,192.01352,480.12692,192.01897,480.12625L192.02089,480.12625L223.98463,480.1273C224.01982,480.1273,224.05356,480.1133,224.07843,480.08844C224.1033,480.06357,224.1173,480.02982,224.1173,479.99463L224.1173,479.99362L224.07843,479.8998L192.09216,447.9146L192.09315,447.9146C192.06908,447.89,192.0355,447.87476,191.99837,447.87476L160.0154,447.87375 Z"/>
    </g>
    <g style="fill:rgb(33,150,243); fill-opacity:1.0; stroke-linejoin: miter">
      <path d="M192.01546,479.87375C191.9618,479.87375,191.91344,479.9061,191.8929,479.95566C191.87236,480.00522,191.88373,480.0623,191.92166,480.10022L223.9062,512.0848C223.93108,512.1097,223.96481,512.1236,224.0,512.1236C224.03519,512.1236,224.06892,512.1097,224.0938,512.0848L240.08473,496.09384C240.1096,496.06897,240.1236,496.03522,240.1236,496.00003C240.1236,495.96484,240.1096,495.9311,240.08473,495.90622L224.09114,479.91364L224.09213,479.91364C224.06805,479.88904,224.03448,479.87378,223.99734,479.87378L192.01546,479.87375 Z"/>
    </g>
    <g style="fill:rgb(186,93,144); fill-opacity:1.0; stroke-linejoin: miter">
      <path d="M239.99998,495.8934C239.97038,495.8934,239.94078,495.9047,239.9182,495.92728L223.92725,511.9182C223.88208,511.96338,223.88208,512.0366,223.92725,512.0818L239.91818,528.07275C239.93988,528.0944,239.9693,528.1066,239.99997,528.1066C240.03064,528.1066,240.06006,528.0944,240.08176,528.07275L256.0727,512.0817C256.11786,512.03656,256.11786,511.96335,256.0727,511.91818L240.08177,495.92728C240.05919,495.9047,240.02959,495.8934,239.99998,495.8934 Z"/>
    </g>
    <g style="fill:rgb(43,90,197); fill-opacity:1.0; stroke-linejoin: miter">
      <path d="M284.44815,490.44528C296.05447,490.44528,305.52448,499.79163,305.64774,511.42557C305.77185,523.136,296.37888,532.73,284.66818,532.8541L284.66824,532.8541C284.58127,532.85504,284.52554,532.8553,284.43878,532.8553C272.83237,532.8553,263.36246,523.50903,263.23917,511.87497C263.11508,500.16452,272.50797,490.57062,284.2188,490.4465C284.29495,490.44568,284.37213,490.44528,284.44815,490.44528 Z M287.99722,447.85944L287.88947,447.90405L255.89777,479.8968L255.89674,479.8968L239.90128,495.89224C239.84177,495.95175,239.84175,496.04825,239.90126,496.10776L255.79301,512.0005L239.90128,527.8923C239.8727,527.92084,239.85664,527.9596,239.85664,528.0C239.85664,528.0404,239.8727,528.07916,239.90128,528.1077L255.89677,544.1032L255.89676,544.1032L287.89154,576.09906C287.92072,576.12823,287.95972,576.14374,287.9994,576.14374C288.019,576.14374,288.0388,576.13995,288.05762,576.13214C288.08377,576.12134,288.10574,576.10376,288.12186,576.0819L288.1211,576.0819C304.10867,554.81836,320.14597,533.49713,320.14603,512.1065C320.14603,490.71603,304.1093,469.28903,288.1221,447.92053C288.09332,447.88208,288.04813,447.85944,288.0001,447.85944 Z"/>
    </g>
    <g style="fill:rgb(255,204,114); fill-opacity:1.0; stroke-linejoin: miter">
      <path d="M284.44818,489.99182C284.36475,489.99182,284.29767,489.99216,284.21396,489.99304L284.214,489.99304C272.25278,490.1198,262.65897,499.91876,262.7857,511.8798C262.91165,523.7627,272.58398,533.3088,284.43887,533.3088C284.5022,533.3088,284.6097,533.3082,284.6729,533.30756L284.673,533.30756C296.63416,533.1808,306.22797,523.38165,306.1012,511.42075C305.97528,499.5378,296.30286,489.99182,284.44818,489.99182 Z"/>
    </g>
  </g>
  <g id="layer2" opacity="0.0" transform="matrix(1, 0, 0, 1, -130.31995, -414.822492)">
    <g style="fill:rgb(0,0,0); fill-opacity:1.0; stroke-linejoin: miter">
      <path d="M255.76411,544.23584L255.76411,544.23584L223.76413,512.23584C223.63387,512.1056,223.63387,511.8944,223.76413,511.76413C223.8944,511.63385,224.1056,511.63385,224.23587,511.76413L224.23587,511.76413L256.23584,543.76416C256.36612,543.8944,256.36612,544.1056,256.23584,544.23584C256.10556,544.3661,255.89438,544.3661,255.76411,544.23584 Z"/>
    </g>
    <g style="fill:rgb(0,0,0); fill-opacity:1.0; stroke-linejoin: miter">
      <path d="M191.76411,543.76416L191.76411,543.76416L223.76413,511.76413C223.8944,511.63385,224.1056,511.63385,224.23587,511.76413C224.36613,511.8944,224.36613,512.1056,224.23587,512.23584L224.23587,512.23584L192.23586,544.23584C192.10559,544.3661,191.89438,544.3661,191.76411,544.23584C191.63385,544.1056,191.63385,543.8944,191.76411,543.76416 Z"/>
    </g>
    <g style="fill:rgb(0,0,0); fill-opacity:1.0; stroke-linejoin: miter">
      <path d="M223.76413,511.76413L223.76413,511.76413L255.76411,479.76413C255.89438,479.63385,256.10556,479.63385,256.23584,479.76413C256.36612,479.8944,256.36612,480.1056,256.23584,480.23587L256.23584,480.23587L224.23587,512.23584C224.1056,512.3661,223.8944,512.3661,223.76413,512.23584C223.63387,512.1056,223.63387,511.8944,223.76413,511.76413 Z"/>
    </g>
    <g style="fill:rgb(0,0,0); fill-opacity:1.0; stroke-linejoin: miter">
      <path d="M223.7641,512.23584L223.7641,512.23584L191.76411,480.23584C191.63385,480.10556,191.63385,479.89438,191.76411,479.7641C191.89438,479.63382,192.10559,479.63382,192.23586,479.7641L192.23586,479.7641L224.23584,511.7641C224.3661,511.89438,224.3661,512.1056,224.23584,512.23584C224.10558,512.3661,223.89436,512.3661,223.7641,512.23584 Z"/>
    </g>
    <g style="fill:rgb(0,0,0); fill-opacity:1.0; stroke-linejoin: miter">
      <path d="M191.66638,511.99997L191.66638,511.99997L191.66641,480.0C191.66641,479.81577,191.81577,479.66644,191.99998,479.66644C192.1842,479.66644,192.33356,479.81577,192.33356,480.0L192.33356,480.0L192.33353,511.99997C192.33353,512.1842,192.18417,512.33356,191.99995,512.33356C191.81573,512.33356,191.66638,512.1842,191.66638,511.99997 Z"/>
    </g>
    <g style="fill:rgb(0,0,0); fill-opacity:1.0; stroke-linejoin: miter">
      <path d="M159.76411,511.7641L159.76411,511.7641L191.76413,479.7641C191.8944,479.63382,192.1056,479.63382,192.23587,479.7641C192.36613,479.89438,192.36613,480.10556,192.23587,480.23584L192.23587,480.23584L160.23586,512.23584C160.10559,512.3661,159.89438,512.3661,159.76411,512.23584C159.63385,512.1056,159.63385,511.89438,159.76411,511.7641 Z"/>
    </g>
    <g style="fill:rgb(0,0,0); fill-opacity:1.0; stroke-linejoin: miter">
      <path d="M191.76411,480.23587L191.76411,480.23587L159.76411,448.2359C159.63385,448.10562,159.63385,447.89444,159.76411,447.76416C159.89438,447.63388,160.10559,447.63388,160.23586,447.76416L160.23586,447.76416L192.23586,479.76413C192.36612,479.8944,192.36612,480.1056,192.23586,480.23587C192.10559,480.36615,191.89438,480.36615,191.76411,480.23587 Z"/>
    </g>
    <g style="fill:rgb(0,0,0); fill-opacity:1.0; stroke-linejoin: miter">
      <path d="M224.00002,480.3336L224.00002,480.3336L191.99997,480.33356C191.81575,480.33356,191.6664,480.18423,191.6664,480.0C191.6664,479.81577,191.81575,479.66644,191.99997,479.66644L191.99997,479.66644L224.00002,479.66647C224.18423,479.66647,224.33359,479.8158,224.33359,480.00003C224.33359,480.18427,224.18423,480.3336,224.00002,480.3336 Z"/>
    </g>
    <g style="fill:rgb(0,0,0); fill-opacity:1.0; stroke-linejoin: miter">
      <path d="M223.76414,480.23584L223.76414,480.23584L191.76411,448.23587C191.63385,448.1056,191.63385,447.8944,191.76411,447.76413C191.89438,447.63385,192.10559,447.63385,192.23586,447.76413L192.23586,447.76413L224.23589,479.7641C224.36615,479.89438,224.36615,480.10556,224.23589,480.23584C224.10562,480.36612,223.89441,480.36612,223.76414,480.23584 Z"/>
    </g>
    <g style="fill:rgb(0,0,0); fill-opacity:1.0; stroke-linejoin: miter">
      <path d="M160.0,447.66644L160.0,447.66644L191.99998,447.66745C192.1842,447.66745,192.33354,447.81677,192.33354,448.001C192.33354,448.18524,192.18417,448.33456,191.99995,448.33456L191.99995,448.33456L159.99997,448.33356C159.81575,448.33356,159.66641,448.18423,159.66641,448.0C159.66641,447.81577,159.81578,447.66644,160.0,447.66644 Z"/>
    </g>
    <g style="fill:rgb(0,0,0); fill-opacity:1.0; stroke-linejoin: miter">
      <path d="M191.66641,544.0L191.66641,544.0L191.66638,511.99997C191.66638,511.81573,191.81573,511.6664,191.99995,511.6664C192.18417,511.6664,192.33353,511.81573,192.33353,511.99997L192.33353,511.99997L192.33356,544.0C192.33356,544.1842,192.1842,544.33356,191.99998,544.33356C191.81577,544.33356,191.66641,544.1842,191.66641,544.0 Z"/>
    </g>
    <g style="fill:rgb(0,0,0); fill-opacity:1.0; stroke-linejoin: miter">
      <path d="M160.23586,511.7641L160.23586,511.7641L192.23586,543.76416C192.36612,543.8944,192.36612,544.1056,192.23586,544.23584C192.10559,544.3661,191.89438,544.3661,191.76411,544.23584L191.76411,544.23584L159.76411,512.23584C159.63385,512.1056,159.63385,511.89438,159.76411,511.7641C159.89438,511.63382,160.10559,511.63382,160.23586,511.7641 Z"/>
    </g>
    <g style="fill:rgb(0,0,0); fill-opacity:1.0; stroke-linejoin: miter">
      <path d="M159.76411,575.76416L159.76411,575.76416L191.76411,543.76416C191.89438,543.6339,192.10559,543.6339,192.23586,543.76416C192.36612,543.8944,192.36612,544.1056,192.23586,544.23584L192.23586,544.23584L160.23586,576.23584C160.10559,576.3661,159.89438,576.3661,159.76411,576.23584C159.63385,576.1056,159.63385,575.8944,159.76411,575.76416 Z"/>
    </g>
    <g style="fill:rgb(0,0,0); fill-opacity:1.0; stroke-linejoin: miter">
      <path d="M191.76411,575.76416L191.76411,575.76416L223.76411,543.76416C223.89438,543.6339,224.10559,543.6339,224.23586,543.76416C224.36612,543.8944,224.36612,544.1056,224.23586,544.23584L224.23586,544.23584L192.23586,576.23584C192.10559,576.3661,191.89438,576.3661,191.76411,576.23584C191.63385,576.1056,191.63385,575.8944,191.76411,575.76416 Z"/>
    </g>
    <g style="fill:rgb(0,0,0); fill-opacity:1.0; stroke-linejoin: miter">
      <path d="M192.00005,543.66644L192.00005,543.66644L224.00003,543.6674C224.18425,543.6674,224.33359,543.8168,224.33359,544.001C224.33359,544.1852,224.18422,544.33453,224.0,544.33453L224.0,544.33453L192.00002,544.33356C191.8158,544.33356,191.66646,544.1842,191.66646,544.0C191.66646,543.8158,191.81583,543.66644,192.00005,543.66644 Z"/>
    </g>
    <g style="fill:rgb(0,0,0); fill-opacity:1.0; stroke-linejoin: miter">
      <path d="M160.0,575.66644L160.0,575.66644L192.0,575.6674C192.18422,575.6674,192.33356,575.8168,192.33356,576.001C192.33356,576.1852,192.18419,576.33453,191.99997,576.33453L191.99997,576.33453L159.99997,576.33356C159.81575,576.33356,159.66641,576.1842,159.66641,576.0C159.66641,575.8158,159.81578,575.66644,160.0,575.66644 Z"/>
    </g>
    <g style="fill:rgb(0,0,0); fill-opacity:1.0; stroke-linejoin: miter">
      <path d="M223.76411,543.76416L223.76411,543.76416L255.76408,511.7641C255.89435,511.63382,256.10553,511.63382,256.2358,511.7641C256.3661,511.89438,256.3661,512.1056,256.2358,512.23584L256.2358,512.23584L224.23586,544.23584C224.10559,544.3661,223.89438,544.3661,223.76411,544.23584C223.63385,544.1056,223.63385,543.8944,223.76411,543.76416 Z"/>
    </g>
    <g style="fill:rgb(0,0,0); fill-opacity:1.0; stroke-linejoin: miter">
      <path d="M255.76411,512.23584L255.76411,512.23584L223.7641,480.2359C223.63383,480.10562,223.63383,479.89444,223.7641,479.76416C223.89436,479.63388,224.10558,479.63388,224.23584,479.76416L224.23584,479.76416L256.23584,511.76413C256.36612,511.8944,256.36612,512.1056,256.23584,512.23584C256.10556,512.3661,255.89438,512.3661,255.76411,512.23584 Z"/>
    </g>
    <g style="fill:rgb(0,0,0); fill-opacity:1.0; stroke-linejoin: miter">
      <path d="M306.12726,511.42047L306.12726,511.42047C306.25418,523.3958,296.6488,533.20667,284.67328,533.3336L284.67328,533.3336C272.69763,533.4605,262.88657,523.85547,262.75964,511.88007L262.75964,511.88007C262.63275,499.90466,272.2381,490.0939,284.2137,489.96698L284.2137,489.96698C296.1892,489.8401,306.00037,499.44516,306.12726,511.42047L306.12726,511.42047 M305.46014,511.42755L305.46014,511.42755C305.33716,499.82065,295.82788,490.5111,284.2208,490.6341L284.2208,490.6341C272.61353,490.7571,263.30377,500.266,263.42676,511.873L263.42676,511.873C263.54977,523.48004,273.05896,532.7895,284.6662,532.6665L284.6662,532.6665C296.27332,532.54346,305.58316,523.0344,305.46014,511.42755 Z"/>
    </g>
    <g style="fill:rgb(0,0,0); fill-opacity:1.0; stroke-linejoin: miter">
      <path d="M255.76411,479.76416L255.76411,479.76416L287.76413,447.76413C287.8944,447.63385,288.1056,447.63385,288.23587,447.76413C288.36615,447.8944,288.36615,448.1056,288.23587,448.23587L288.23587,448.23587L256.23584,480.2359C256.10556,480.36618,255.89438,480.36618,255.76411,480.2359C255.63385,480.10562,255.63385,479.89444,255.76411,479.76416 Z"/>
    </g>
    <g style="fill:rgb(0,0,0); fill-opacity:1.0; stroke-linejoin: miter">
      <path d="M287.76413,576.2359L287.76413,576.2359L255.76411,544.23584C255.63385,544.1056,255.63385,543.8944,255.76411,543.76416C255.89438,543.6339,256.10556,543.6339,256.23584,543.76416L256.23584,543.76416L288.23587,575.7642C288.36615,575.8945,288.36615,576.10565,288.23587,576.2359C288.1056,576.36615,287.8944,576.36615,287.76413,576.2359 Z"/>
    </g>
    <g style="fill:rgb(0,0,0); fill-opacity:1.0; stroke-linejoin: miter">
      <path d="M288.33362,448.00006L288.33362,448.00006L288.33362,448.00107L288.26715,447.80124C304.2419,469.1531,320.33362,490.63785,320.33362,512.1065L320.33362,512.1065C320.33356,533.5755,304.24133,554.95404,288.26666,576.20044C288.15598,576.34766,287.94687,576.3773,287.79962,576.2666C287.65237,576.1559,287.62277,575.9468,287.73346,575.79956L287.73346,575.79956C303.75867,554.48596,319.66644,533.30383,319.6665,512.1065L319.6665,512.1065C319.6665,490.90848,303.7582,469.6202,287.73297,448.2009C287.68982,448.14322,287.6665,448.07312,287.6665,448.00107L287.6665,448.00107L287.6665,448.00006C287.6665,447.81583,287.81583,447.6665,288.00006,447.6665C288.1843,447.6665,288.33362,447.81583,288.33362,448.00006 Z"/>
    </g>
  </g>
</svg>